<?xml version="1.0" encoding="utf-8"?>
<?xml-stylesheet type="text/xsl" href="rss1.xsl"?>
<rss version="2.0" xmlns:atom="http://www.w3.org/2005/Atom" xmlns:content="http://purl.org/rss/1.0/modules/content/" xmlns:dc="http://purl.org/dc/elements/1.1/" xmlns:media="http://search.yahoo.com/mrss/">
<channel>
 <title>Getty</title>
 <link>http://www.gettyimg.com/</link>
 <atom:link href="http://www.gettyimg.com/" rel="self" type="application/rss+xml" />

 
                <item>
                <title><![CDATA[【SD】DVD - Avril Lavigne - He Wasn't (Music Video) SD Upscale]]></title>
                <link><![CDATA[https://sharemania.us/threads/avril-lavigne-he-wasnt-music-video-sd-upscale.234696/]]></link>
                <description><![CDATA[<article>
<blockquote class="messageText SelectQuoteContainer ugc baseHtml">
Very good quality! <img src="styles/default/xenforo/smilies/big_smile-48.png" class="mceSmilie" alt=":)" title="Smile    :)"><img src="styles/default/xenforo/smilies/big_smile-48.png" class="mceSmilie" alt=":)" title="Smile    :)"><img src="styles/default/xenforo/smilies/big_smile-48.png" class="mceSmilie" alt=":)" title="Smile    :)"><br>
<br>
<img src="https://i.imgur.com/hBeZpyg.png" class="bbCodeImage LbImage" alt="[​IMG]" data-url="https://i.imgur.com/hBeZpyg.png" style=""> <img src="https://i.imgur.com/3v6Cqki.png" class="bbCodeImage LbImage" alt="[​IMG]" data-url="https://i.imgur.com/3v6Cqki.png" style=""> <img src="https://i.imgur.com/0RsgBfX.png" class="bbCodeImage LbImage" alt="[​IMG]" data-url="https://i.imgur.com/0RsgBfX.png" style=""> <img src="https://i.imgur.com/GOI34yd.png" class="bbCodeImage LbImage" alt="[​IMG]" data-url="https://i.imgur.com/GOI34yd.png" style=""><br>
<br>
<div class="ToggleTriggerAnchor bbCodeSpoilerContainer">
<button type="button" class="button bbCodeSpoilerButton ToggleTrigger Tooltip JsOnly" data-target="> .SpoilerTarget"><span>Spoiler: <span class="SpoilerTitle">MediaInfo</span></span></button>
<div class="SpoilerTarget bbCodeSpoilerText">General<br>
File size : 445 MiB<br>
Duration : 2 min 54 s<br>
Overall bit rate : 21.4 Mb/s<br>
major_brand : qt <br>
minor_version : 512<br>
compatible_brands : qt <br>
SOFTWARE : Nandub v1.0rc2<br>
<br>
Video<br>
ID : 1<br>
Format : AVC<br>
Format/Info : Advanced Video Codec<br>
Format profile : High@L4.2<br>
Format settings : CABAC / 1 Ref Frames<br>
Format settings, CABAC : Yes<br>
Format settings, Reference fra : 1 frame<br>
Format settings, GOP : M=1, N=30<br>
Codec ID : avc1<br>
Codec ID/Info : Advanced Video Coding<br>
Duration : 2 min 54 s<br>
Bit rate : 19.1 Mb/s<br>
Width : 640 pixels<br>
Height : 480 pixels<br>
Display aspect ratio : 4:3<br>
Frame rate mode : Constant<br>
Frame rate : 23.976 (23976/1000) FPS<br>
Standard : Component<br>
Color space : YUV<br>
Chroma subsampling : 4:2:0<br>
Bit depth : 8 bits<br>
Scan type : Progressive<br>
Bits/(Pixel*Frame) : 2.596<br>
Stream size : 397 MiB (89%)<br>
Color range : Limited<br>
Matrix coefficients : BT.709<br>
Codec configuration box : avcC<br>
<br>
Audio<br>
ID : 2<br>
Format : PCM<br>
Format settings : Little / Signed<br>
Codec ID : in24<br>
Duration : 2 min 54 s<br>
Source duration : 2 min 54 s<br>
Bit rate mode : Constant<br>
Bit rate : 2 304 kb/s<br>
Channel(s) : 2 channels<br>
Channel layout : L R<br>
Sampling rate : 48.0 kHz<br>
Bit depth : 24 bits<br>
Stream size : 47.9 MiB (11%)<br>
Source stream size : 47.9 MiB (11%)<br>
Default : Yes<br>
Alternate group : 1<br>
mdhd_Duration : 174258</div>
</div><br>
<div class="bbCodeBlock bbCodeVfcHH HiddenContent">
<div class="attribution type">Hidden Content:</div>
<blockquote>You must reply before you can see the hidden data contained here.</blockquote>
</div>
<div class="messageTextEndMarker">&nbsp;</div>
</blockquote>
</article>]]></description>
                <author><![CDATA[Avril1255]]></author>
                </item>

                
                <item>
                <title><![CDATA[【Requests】[REQ CAP] - Zoey 101 S02-S03]]></title>
                <link><![CDATA[https://sharemania.us/threads/zoey-101-s02-s03.234697/]]></link>
                <description><![CDATA[<article>
<blockquote class="messageText SelectQuoteContainer ugc baseHtml">
By any chance does anyone have Season 2 or 3 of Zoey 101?
<div class="messageTextEndMarker">&nbsp;</div>
</blockquote>
</article>]]></description>
                <author><![CDATA[KJason2003]]></author>
                </item>

                </channel></rss>